<svg width="246" height="246" viewBox="0 0 246 246" fill="none" xmlns="http://www.w3.org/2000/svg">
<mask id="mask0" mask-type="alpha" maskUnits="userSpaceOnUse" x="21" y="32" width="202" height="193">
<path d="M122 224.942C177.731 224.942 222.909 181.781 222.909 128.538C222.909 75.2959 177.731 32.1345 122 32.1345C66.2694 32.1345 21.0908 75.2959 21.0908 128.538C21.0908 181.781 66.2694 224.942 122 224.942Z" fill="white"/>
</mask>
<g mask="url(#mask0)">
<path d="M122 224.942C177.731 224.942 222.909 181.781 222.909 128.538C222.909 75.2959 177.731 32.1345 122 32.1345C66.2694 32.1345 21.0908 75.2959 21.0908 128.538C21.0908 181.781 66.2694 224.942 122 224.942Z" fill="#E6E6E6"/>
<path d="M222.909 32.1345H21.0908V224.942H222.909V32.1345Z" fill="#4299E1"/>
</g>
<mask id="mask1" mask-type="alpha" maskUnits="userSpaceOnUse" x="11" y="0" width="222" height="225">
<path d="M21.0909 128.538C21.0909 181.781 66.2694 224.942 122 224.942C177.731 224.942 222.909 181.781 222.909 128.538H233V0H11V128.538H21.0909Z" fill="white"/>
</mask>
<g mask="url(#mask1)">
<mask id="mask2" mask-type="alpha" maskUnits="userSpaceOnUse" x="37" y="28" width="170" height="197">
<path d="M142.182 145.096V159.869H145.545C178.984 159.869 206.091 185.766 206.091 217.711V224.942H37.9092V217.711C37.9092 185.766 65.0163 159.869 98.4546 159.869H101.818V145.096C87.3232 138.518 76.904 125.073 75.1658 109.162C70.2676 108.5 66.5001 104.479 66.5001 99.6166V88.3699C66.5001 83.5931 70.1367 79.6278 74.9092 78.8629V73.9094C74.9092 49.063 95.9925 28.9211 122 28.9211C148.008 28.9211 169.091 49.063 169.091 73.9094V78.8629C173.863 79.6278 177.5 83.5931 177.5 88.3699V99.6166C177.5 104.479 173.732 108.5 168.834 109.162C167.096 125.073 156.677 138.518 142.182 145.096Z" fill="white"/>
</mask>
<g mask="url(#mask2)">
<path d="M142.182 145.096V159.869H145.545C178.984 159.869 206.091 185.766 206.091 217.711V224.942H37.9092V217.711C37.9092 185.766 65.0163 159.869 98.4546 159.869H101.818V145.096C87.3232 138.518 76.904 125.073 75.1658 109.162C70.2676 108.5 66.5001 104.479 66.5001 99.6166V88.3699C66.5001 83.5931 70.1367 79.6278 74.9092 78.8629V73.9094C74.9092 49.063 95.9925 28.9211 122 28.9211C148.008 28.9211 169.091 49.063 169.091 73.9094V78.8629C173.863 79.6278 177.5 83.5931 177.5 88.3699V99.6166C177.5 104.479 173.732 108.5 168.834 109.162C167.096 125.073 156.677 138.518 142.182 145.096Z" fill="#D0C6AC"/>
<path d="M233 28.9211H11V224.942H233V28.9211Z" fill="#D08B5B"/>
<path fill-rule="evenodd" clip-rule="evenodd" d="M169.091 92.3868V110.864C169.091 135.711 148.008 155.852 122 155.852C95.9925 155.852 74.9092 135.711 74.9092 110.864V92.3868V104.437C74.9092 129.284 95.9925 149.425 122 149.425C148.008 149.425 169.091 129.284 169.091 104.437V92.3868Z" fill="black" fill-opacity="0.1"/>
</g>
<mask id="mask3" mask-type="alpha" maskUnits="userSpaceOnUse" x="37" y="147" width="170" height="78">
<path fill-rule="evenodd" clip-rule="evenodd" d="M101.818 147.073C86.7503 148.684 75.1445 153.082 74.9127 164.405C53.1687 173.179 37.9092 193.743 37.9092 217.711V224.942H206.091V217.711C206.091 193.743 190.831 173.179 169.087 164.405C168.856 153.082 157.25 148.684 142.182 147.073V162.28C142.182 172.927 133.146 181.56 122 181.56C110.854 181.56 101.818 172.927 101.818 162.28V147.073Z" fill="white"/>
</mask>
<g mask="url(#mask3)">
<path fill-rule="evenodd" clip-rule="evenodd" d="M101.818 147.073C86.7503 148.684 75.1445 153.082 74.9127 164.405C53.1687 173.179 37.9092 193.743 37.9092 217.711V224.942H206.091V217.711C206.091 193.743 190.831 173.179 169.087 164.405C168.856 153.082 157.25 148.684 142.182 147.073V162.28C142.182 172.928 133.146 181.56 122 181.56C110.854 181.56 101.818 172.928 101.818 162.28V147.073Z" fill="#B7C1DB"/>
<path d="M233 136.572H11V224.942H233V136.572Z" fill="white"/>
<path fill-rule="evenodd" clip-rule="evenodd" d="M96.7728 186.17V224.942H90.8865V183.287C92.7396 184.34 94.7099 185.304 96.7728 186.17ZM153.114 183.287V215.703C153.114 217.256 151.796 218.515 150.17 218.515C148.545 218.515 147.227 217.256 147.227 215.703V186.17C149.29 185.304 151.26 184.34 153.114 183.287Z" fill="#F4F4F4"/>
<path fill-rule="evenodd" clip-rule="evenodd" d="M87.4893 146.794C74.8329 149.081 66.0796 153.637 66.0796 162.527C66.0796 178.363 93.8613 191.2 122 191.2C150.139 191.2 177.92 178.363 177.92 162.527C177.92 153.637 169.167 149.081 156.511 146.794C164.15 149.486 169.091 154.009 169.091 161.538C169.091 177.92 145.696 191.2 122 191.2C98.3043 191.2 74.9092 177.92 74.9092 161.538C74.9092 154.009 79.8496 149.486 87.4893 146.794Z" fill="black" fill-opacity="0.16"/>
</g>
<mask id="mask4" mask-type="alpha" maskUnits="userSpaceOnUse" x="11" y="5" width="222" height="220">
<path d="M233 5.74319H11V224.942H233V5.74319Z" fill="white"/>
</mask>
<g mask="url(#mask4)">
<mask id="mask5" mask-type="alpha" maskUnits="userSpaceOnUse" x="69" y="8" width="106" height="73">
<path fill-rule="evenodd" clip-rule="evenodd" d="M164.617 31.2901C169.163 27.3132 170.258 19.2498 167.676 14.0182C164.507 7.59488 158.076 6.79016 151.913 9.61515C146.104 12.2783 140.933 13.1654 134.572 11.8751C128.468 10.6371 122.677 8.45349 116.369 8.09488C106.004 7.50577 95.9348 11.1785 88.8709 18.5812C87.5231 19.9934 86.4372 21.6082 85.4107 23.2448C84.5894 24.5543 83.6635 25.9594 83.3141 27.4687C83.1479 28.1864 83.4573 29.9573 83.0831 30.5454C82.6785 31.1804 81.1525 31.7628 80.5021 32.234C79.1846 33.1889 78.0431 34.2667 76.9874 35.4855C74.7455 38.0735 73.5114 40.7769 72.4735 43.9784C69.0233 54.6189 68.7309 67.2747 73.1912 77.7228C73.7857 79.1161 75.6282 82.0222 76.7114 79.0387C76.9254 78.449 76.4301 76.4728 76.4312 75.8778C76.4351 73.6926 77.6977 59.225 83.1981 51.1204C84.9885 48.4823 93.2662 38.6034 94.9569 38.5242C95.8527 39.8841 104.947 48.5733 128.545 47.555C139.193 47.0955 147.381 42.5254 149.347 40.5443C150.212 44.9891 160.273 51.6433 161.805 54.3814C166.234 62.2909 167.216 78.7261 168.907 78.6953C170.597 78.6645 171.811 74.4877 172.159 73.6901C174.742 67.7651 175.181 60.3284 174.906 53.9606C174.546 45.7647 171.005 36.908 164.617 31.2901Z" fill="white"/>
</mask>
<g mask="url(#mask5)">
<path fill-rule="evenodd" clip-rule="evenodd" d="M164.617 31.2901C169.163 27.3132 170.258 19.2498 167.676 14.0182C164.507 7.59488 158.076 6.79016 151.913 9.61515C146.104 12.2783 140.933 13.1654 134.572 11.8751C128.468 10.6371 122.677 8.45349 116.369 8.09488C106.004 7.50577 95.9348 11.1785 88.8709 18.5812C87.5231 19.9934 86.4372 21.6082 85.4107 23.2448C84.5894 24.5543 83.6635 25.9594 83.3141 27.4687C83.1479 28.1864 83.4573 29.9573 83.0831 30.5454C82.6785 31.1804 81.1525 31.7628 80.5021 32.234C79.1846 33.1889 78.0431 34.2667 76.9874 35.4855C74.7455 38.0735 73.5114 40.7769 72.4735 43.9784C69.0233 54.6189 68.7309 67.2747 73.1912 77.7228C73.7857 79.1161 75.6282 82.0222 76.7114 79.0387C76.9254 78.449 76.4301 76.4728 76.4312 75.8778C76.4351 73.6926 77.6977 59.225 83.1981 51.1204C84.9885 48.4823 93.2662 38.6034 94.9569 38.5242C95.8527 39.8841 104.947 48.5733 128.545 47.555C139.193 47.0955 147.381 42.5254 149.347 40.5443C150.212 44.9891 160.273 51.6433 161.805 54.3814C166.234 62.2909 167.216 78.7261 168.907 78.6953C170.597 78.6645 171.811 74.4877 172.159 73.6901C174.742 67.7651 175.181 60.3284 174.906 53.9606C174.546 45.7647 171.005 36.908 164.617 31.2901Z" fill="#28354B"/>
<path d="M232.159 0H10.1592V224.942H232.159V0Z" fill="#2C1B18"/>
</g>
<path fill-rule="evenodd" clip-rule="evenodd" d="M110.227 119.702C110.227 125.913 115.498 130.949 122 130.949C128.502 130.949 133.773 125.913 133.773 119.702" fill="black" fill-opacity="0.7"/>
<path fill-rule="evenodd" clip-rule="evenodd" d="M111.909 104.437C111.909 107.986 116.427 110.864 122 110.864C127.573 110.864 132.091 107.986 132.091 104.437" fill="black" fill-opacity="0.16"/>
<path d="M106.263 90.5324L106.263 90.5326C106.431 90.8585 106.344 91.0404 106.316 91.0734C106.313 91.0778 106.31 91.0805 106.308 91.0819L106.306 91.0833C106.306 91.0833 106.306 91.0833 106.306 91.0833C106.304 91.0834 106.292 91.0837 106.27 91.0752C106.247 91.0665 106.211 91.048 106.164 91.0099L106.164 91.0098C104.006 89.2369 100.963 88.1461 97.6115 88.1461C94.3643 88.1461 91.4084 89.1698 89.2645 90.8453C89.1423 90.9409 89.0454 90.9678 88.9884 90.9719C88.9326 90.976 88.9074 90.9602 88.8986 90.9531C88.8907 90.9467 88.8719 90.9282 88.8655 90.8758C88.8588 90.8205 88.8661 90.7155 88.9438 90.5627C90.4027 87.6955 93.7156 85.6565 97.6115 85.6565C101.494 85.6565 104.797 87.6812 106.263 90.5324Z" fill="black" fill-opacity="0.7" stroke="black"/>
<path d="M155.036 90.5326L155.036 90.5324C153.57 87.6812 150.266 85.6565 146.384 85.6565C142.488 85.6565 139.176 87.6955 137.717 90.5627L155.036 90.5326ZM155.036 90.5326C155.204 90.8586 155.117 91.0404 155.089 91.0733C155.086 91.0777 155.083 91.0804 155.081 91.0818L155.079 91.0833L155.079 91.0833C155.079 91.0833 155.078 91.0833 155.078 91.0833C155.078 91.0833 155.029 91.0859 154.936 91.0097C152.778 89.2368 149.736 88.1461 146.384 88.1461C143.137 88.1461 140.181 89.1698 138.037 90.8453L138.037 90.8453M155.036 90.5326L138.037 90.8453M138.037 90.8453C137.915 90.9409 137.818 90.9678 137.761 90.9719M138.037 90.8453L137.761 90.9719M137.761 90.9719C137.705 90.976 137.68 90.9602 137.671 90.9532M137.761 90.9719L137.671 90.9532M137.671 90.9532C137.663 90.9468 137.645 90.9283 137.638 90.8758M137.671 90.9532L137.638 90.8758M137.638 90.8758C137.631 90.8205 137.639 90.7155 137.716 90.5627L137.638 90.8758Z" fill="black" fill-opacity="0.7" stroke="black"/>
<path d="M87.6516 79.3619L87.6516 79.3619C87.2774 79.8651 86.5297 79.993 85.9886 79.6256L85.9886 79.6255C85.4607 79.2671 85.3485 78.5862 85.7122 78.0972C87.701 75.4238 91.2371 73.3551 95.4322 72.2209C99.6189 71.0889 104.405 70.9043 108.833 71.9432C109.481 72.0952 109.841 72.7036 109.695 73.2755C109.545 73.8562 108.914 74.2441 108.258 74.0904L108.144 74.5772L108.258 74.0904C104.285 73.1582 100.003 73.3272 96.292 74.2913C92.5938 75.2521 89.3918 77.0226 87.6516 79.3619Z" fill="black" fill-opacity="0.7" stroke="black"/>
<path d="M158.288 78.0972C158.652 78.5865 158.54 79.2674 158.012 79.6256L158.012 79.6256C157.471 79.993 156.723 79.8651 156.349 79.3619C154.609 77.0226 151.407 75.2521 147.709 74.2913C143.998 73.3272 139.715 73.1582 135.742 74.0904L135.742 74.0904C135.086 74.2442 134.455 73.856 134.306 73.2758L134.306 73.2753C134.159 72.7042 134.52 72.0954 135.168 71.9432M158.288 78.0972L158.689 77.7988M158.288 78.0972L158.689 77.7988M158.288 78.0972C156.299 75.4238 152.763 73.3551 148.568 72.2209C144.381 71.0889 139.596 70.9043 135.168 71.9432M158.689 77.7988C159.227 78.5222 159.05 79.5252 158.293 80.0392C157.536 80.5533 156.486 80.3836 155.948 79.6604C152.656 75.2348 143.63 72.7532 135.856 74.5772C134.954 74.7888 134.043 74.2618 133.822 73.4L158.689 77.7988ZM135.168 71.9432L135.054 71.4564L135.168 71.9432Z" fill="black" fill-opacity="0.7" stroke="black"/>
</g>
</g>
</svg>
