<svg width="34" height="34" viewBox="0 0 34 34" fill="none" xmlns="http://www.w3.org/2000/svg">
<path d="M17 34C26.3888 34 34 26.3888 34 17C34 7.61116 26.3888 0 17 0C7.61116 0 0 7.61116 0 17C0 26.3888 7.61116 34 17 34Z" fill="white"/>
<path fill-rule="evenodd" clip-rule="evenodd" d="M17 7.71601C14.7401 7.71812 12.5546 8.5241 10.8345 9.98981C9.11435 11.4555 7.97172 13.4854 7.61096 15.7163C7.25021 17.9472 7.69485 20.2337 8.86537 22.1669C10.0359 24.1 11.8559 25.5537 14 26.268C14.476 26.356 14.648 26.06 14.648 25.812C14.648 25.564 14.648 24.832 14.648 24.04C12 24.612 11.448 22.916 11.448 22.916C11.016 21.816 10.392 21.52 10.392 21.52C9.52802 20.932 10.456 20.944 10.456 20.944C10.758 20.9853 11.0464 21.0951 11.2995 21.265C11.5525 21.4348 11.7634 21.6602 11.916 21.924C12.764 23.38 14.144 22.96 14.688 22.724C14.7285 22.2408 14.9431 21.7888 15.292 21.452C13.176 21.212 10.952 20.392 10.952 16.744C10.9387 15.7983 11.2913 14.884 11.936 14.192C11.6425 13.3713 11.6755 12.4692 12.028 11.672C12.028 11.672 12.828 11.416 14.644 12.648C16.2047 12.2213 17.8513 12.2213 19.412 12.648C21.232 11.416 22.028 11.672 22.028 11.672C22.3806 12.4692 22.4135 13.3713 22.12 14.192C22.7636 14.8844 23.1148 15.7988 23.1 16.744C23.1 20.404 20.876 21.208 18.756 21.444C18.9825 21.6755 19.157 21.9525 19.268 22.2566C19.3791 22.5608 19.4241 22.8851 19.4 23.208C19.4 24.48 19.4 25.504 19.4 25.82C19.4 26.072 19.572 26.368 20.056 26.276C22.2014 25.5613 24.0223 24.1063 25.1927 22.1715C26.3631 20.2367 26.8066 17.9484 26.4438 15.7164C26.0809 13.4844 24.9354 11.4545 23.2124 9.99003C21.4893 8.5256 19.3013 7.72233 17.04 7.72402L17 7.71601Z" fill="black"/>
<path d="M11.084 21.3842C11.084 21.4323 10.992 21.4443 10.924 21.4123C10.856 21.3802 10.816 21.3161 10.836 21.2681C10.856 21.22 10.932 21.208 11 21.24C11.068 21.2721 11.108 21.3362 11.084 21.3842Z" fill="black"/>
<path d="M11.472 21.8124C11.428 21.8565 11.336 21.8364 11.276 21.7683C11.248 21.7448 11.2296 21.7118 11.2244 21.6756C11.2192 21.6393 11.2276 21.6025 11.248 21.5721C11.296 21.528 11.38 21.548 11.444 21.6161C11.508 21.6842 11.52 21.7723 11.472 21.8124Z" fill="black"/>
<path d="M11.848 22.3644C11.788 22.4045 11.692 22.3645 11.636 22.2803C11.58 22.1962 11.576 22.0921 11.636 22.052C11.696 22.012 11.788 22.052 11.848 22.1321C11.908 22.2123 11.908 22.3204 11.848 22.3644Z" fill="black"/>
<path d="M12.36 22.8924C12.308 22.9484 12.196 22.9324 12.116 22.8563C12.036 22.7802 12.008 22.6681 12.064 22.612C12.12 22.556 12.228 22.572 12.308 22.6481C12.388 22.7242 12.416 22.8363 12.36 22.8924Z" fill="black"/>
<path d="M13.072 23.2003C13.048 23.2724 12.94 23.3084 12.832 23.2764C12.724 23.2443 12.656 23.1562 12.676 23.0801C12.696 23.004 12.808 22.972 12.916 23.004C13.024 23.0361 13.092 23.1242 13.072 23.2003Z" fill="black"/>
<path d="M13.848 23.2562C13.848 23.3363 13.76 23.4003 13.648 23.4003C13.536 23.4003 13.44 23.3403 13.44 23.2642C13.44 23.1881 13.528 23.12 13.644 23.116C13.76 23.112 13.848 23.1801 13.848 23.2562Z" fill="black"/>
<path d="M14.576 23.1322C14.576 23.2083 14.508 23.2884 14.396 23.3084C14.284 23.3284 14.184 23.2844 14.172 23.2083C14.16 23.1322 14.236 23.0481 14.348 23.028C14.46 23.008 14.56 23.0561 14.576 23.1322Z" fill="black"/>
</svg>
