<svg width="34" height="34" viewBox="0 0 34 34" fill="none" xmlns="http://www.w3.org/2000/svg">
<path d="M17 34C26.3888 34 34 26.3888 34 17C34 7.61116 26.3888 0 17 0C7.61116 0 0 7.61116 0 17C0 26.3888 7.61116 34 17 34Z" fill="white"/>
<path d="M17 9.2C19.54 9.2 19.844 9.20001 20.848 9.25601C21.452 9.26127 22.0503 9.37228 22.616 9.58401C23.0254 9.74302 23.3973 9.98553 23.7079 10.2961C24.0185 10.6067 24.261 10.9785 24.42 11.388C24.6317 11.9536 24.7427 12.552 24.748 13.156C24.796 14.16 24.804 14.464 24.804 17.004C24.804 19.544 24.804 19.848 24.748 20.852C24.7427 21.4559 24.6317 22.0543 24.42 22.62C24.261 23.0294 24.0185 23.4013 23.7079 23.7119C23.3973 24.0225 23.0254 24.265 22.616 24.424C22.0503 24.6357 21.452 24.7467 20.848 24.752C19.844 24.8 19.544 24.808 17 24.808C14.456 24.808 14.156 24.808 13.152 24.752C12.548 24.7467 11.9496 24.6357 11.384 24.424C10.9779 24.2622 10.6096 24.018 10.3026 23.7069C9.99555 23.3957 9.75632 23.0242 9.59999 22.616C9.38826 22.0503 9.27725 21.4519 9.27199 20.848C9.22399 19.844 9.21599 19.54 9.21599 17C9.21599 14.46 9.21599 14.156 9.27199 13.152C9.27725 12.548 9.38826 11.9497 9.59999 11.384C9.75909 10.9802 9.99957 10.6134 10.3065 10.3065C10.6134 9.99959 10.9802 9.7591 11.384 9.6C11.9496 9.38828 12.548 9.27726 13.152 9.272C14.156 9.224 14.46 9.216 17 9.216V9.2ZM17 7.50001C14.416 7.50001 14.092 7.50001 13.076 7.55601C12.2858 7.57235 11.504 7.72247 10.764 8.00001C10.1263 8.24294 9.5471 8.61801 9.06454 9.10057C8.58198 9.58312 8.20693 10.1623 7.96399 10.8C7.68645 11.5401 7.53633 12.3218 7.51999 13.112C7.47599 14.128 7.46399 14.452 7.46399 17.036C7.46399 19.62 7.46399 19.944 7.51999 20.96C7.55186 21.7401 7.7141 22.5094 7.99999 23.236C8.24293 23.8737 8.61798 24.4529 9.10054 24.9354C9.5831 25.418 10.1623 25.793 10.8 26.036C11.54 26.3135 12.3218 26.4636 13.112 26.48C14.128 26.524 14.452 26.536 17.036 26.536C19.62 26.536 19.944 26.536 20.96 26.48C21.7502 26.4636 22.5319 26.3135 23.272 26.036C23.9097 25.793 24.4889 25.418 24.9714 24.9354C25.454 24.4529 25.8291 23.8737 26.072 23.236C26.3495 22.4959 26.4997 21.7142 26.516 20.924C26.56 19.908 26.572 19.584 26.572 17C26.572 14.416 26.572 14.092 26.516 13.076C26.4997 12.2858 26.3495 11.504 26.072 10.764C25.8291 10.1263 25.454 9.54711 24.9714 9.06456C24.4889 8.582 23.9097 8.20693 23.272 7.964C22.5319 7.68646 21.7502 7.53634 20.96 7.52C19.944 7.476 19.62 7.464 17.036 7.464L17 7.50001Z" fill="black"/>
<path d="M17 12.112C16.0332 12.112 15.0882 12.3987 14.2844 12.9358C13.4805 13.4729 12.854 14.2363 12.4841 15.1294C12.1141 16.0226 12.0173 17.0054 12.2059 17.9536C12.3945 18.9018 12.8601 19.7727 13.5437 20.4563C14.2273 21.1399 15.0982 21.6054 16.0464 21.794C16.9946 21.9826 17.9774 21.8858 18.8706 21.5159C19.7637 21.1459 20.5271 20.5194 21.0642 19.7156C21.6013 18.9118 21.888 17.9667 21.888 17C21.888 15.7036 21.373 14.4603 20.4563 13.5436C19.5397 12.627 18.2964 12.112 17 12.112ZM17 20.172C16.3726 20.172 15.7594 19.9859 15.2377 19.6374C14.7161 19.2889 14.3095 18.7934 14.0695 18.2138C13.8294 17.6342 13.7666 16.9965 13.889 16.3812C14.0113 15.7659 14.3134 15.2007 14.7571 14.757C15.2007 14.3134 15.7659 14.0113 16.3812 13.8889C16.9965 13.7665 17.6343 13.8294 18.2139 14.0695C18.7935 14.3095 19.2889 14.7161 19.6374 15.2377C19.986 15.7593 20.172 16.3726 20.172 17C20.172 17.8412 19.8378 18.6481 19.2429 19.2429C18.6481 19.8378 17.8413 20.172 17 20.172Z" fill="black"/>
<path d="M22.08 13.064C22.7118 13.064 23.224 12.5518 23.224 11.92C23.224 11.2881 22.7118 10.7759 22.08 10.7759C21.4482 10.7759 20.936 11.2881 20.936 11.92C20.936 12.5518 21.4482 13.064 22.08 13.064Z" fill="black"/>
</svg>
