<svg width="34" height="34" viewBox="0 0 34 34" fill="none" xmlns="http://www.w3.org/2000/svg">
<path d="M17 34C26.3888 34 34 26.3888 34 17C34 7.61116 26.3888 0 17 0C7.61116 0 0 7.61116 0 17C0 26.3888 7.61116 34 17 34Z" fill="white"/>
<path d="M7.72402 13.744H11.672V26.44H7.72402V13.744ZM9.70001 7.43607C10.1525 7.43607 10.5949 7.57026 10.9712 7.82167C11.3474 8.07308 11.6407 8.4304 11.8138 8.84847C11.987 9.26655 12.0323 9.72659 11.944 10.1704C11.8558 10.6142 11.6378 11.0219 11.3179 11.3419C10.9979 11.6619 10.5902 11.8798 10.1464 11.9681C9.70255 12.0564 9.24251 12.0111 8.82443 11.8379C8.40636 11.6647 8.04902 11.3715 7.79762 10.9952C7.54621 10.6189 7.41202 10.1766 7.41202 9.72406C7.41202 9.11724 7.65308 8.53527 8.08216 8.10619C8.51124 7.67711 9.0932 7.43607 9.70001 7.43607Z" fill="black"/>
<path d="M14.148 13.744H17.928V15.48H18C18.3787 14.833 18.9257 14.3008 19.5829 13.9401C20.2401 13.5795 20.9829 13.4039 21.732 13.432C25.732 13.432 26.464 16.06 26.464 19.476V26.44H22.52V20.268C22.52 18.796 22.496 16.9 20.472 16.9C18.448 16.9 18.104 18.5 18.104 20.16V26.44H14.164L14.148 13.744Z" fill="black"/>
</svg>
