<svg width="34" height="34" viewBox="0 0 34 34" fill="none" xmlns="http://www.w3.org/2000/svg">
<path d="M17 34C26.3888 34 34 26.3888 34 17C34 7.61116 26.3888 0 17 0C7.61116 0 0 7.61116 0 17C0 26.3888 7.61116 34 17 34Z" fill="white"/>
<path d="M26.52 11.096C25.8063 11.4105 25.0502 11.6181 24.276 11.712C25.0925 11.2238 25.7027 10.4543 25.992 9.54798C25.2257 10.0037 24.3868 10.3243 23.512 10.496C22.9758 9.9254 22.2807 9.52903 21.5166 9.35821C20.7525 9.1874 19.9547 9.25 19.2267 9.53795C18.4986 9.8259 17.8738 10.3259 17.4333 10.9732C16.9928 11.6204 16.7568 12.385 16.756 13.168C16.7565 13.4681 16.79 13.7672 16.856 14.06C15.3039 13.9841 13.7851 13.5836 12.3974 12.8843C11.0098 12.185 9.78426 11.2024 8.79997 9.99999C8.3036 10.8574 8.15141 11.8713 8.37418 12.8367C8.59696 13.8021 9.17807 14.6468 9.99997 15.2C9.37893 15.1804 8.7715 15.0131 8.22798 14.712V14.764C8.22867 15.6659 8.54131 16.5399 9.11289 17.2376C9.68447 17.9353 10.4798 18.4138 11.364 18.592C10.7885 18.7464 10.1856 18.7697 9.59997 18.66C9.84875 19.4363 10.3343 20.1153 10.9886 20.6017C11.6428 21.088 12.4329 21.3574 13.248 21.372C11.864 22.4542 10.1568 23.0402 8.39997 23.036C8.08848 23.0356 7.77727 23.0169 7.46797 22.98C9.25653 24.1322 11.3404 24.7421 13.468 24.736C20.668 24.736 24.584 18.784 24.584 13.624C24.584 13.452 24.584 13.284 24.584 13.116C25.3439 12.5627 25.9995 11.8788 26.52 11.096Z" fill="black"/>
</svg>
